<?xml version="1.0" standalone="no"?><!DOCTYPE svg PUBLIC "-//W3C//DTD SVG 1.1//EN"
        "http://www.w3.org/Graphics/SVG/1.1/DTD/svg11.dtd">
<svg t="1617261363233" class="icon" viewBox="0 0 1024 1024" version="1.1" xmlns="http://www.w3.org/2000/svg" p-id="1879"
     width="30" height="30">
    <path d="M906.666667 214.848H725.333333v-57.6c-2.133333-40.533333-36.266667-70.4-76.8-70.4h-298.666666c-40.533333 2.133333-72.533333 34.133333-72.533334 74.666667v53.333333H117.333333c-40.533333 0-74.666667 34.133333-74.666666 74.666667v554.666666c0 40.533333 34.133333 74.666667 74.666666 74.666667h789.333334c40.533333 0 74.666667-34.133333 74.666666-74.666667v-554.666666c0-40.533333-34.133333-74.666667-74.666666-74.666667zM341.333333 161.514667c2.133333-6.4 6.4-10.666667 12.8-10.666667h296.533334c6.4 0 10.666667 6.4 10.666666 10.666667v53.333333H341.333333v-53.333333z m-224 117.333333h789.333334c6.4 0 10.666667 4.266667 10.666666 10.666667v149.333333H106.666667v-149.333333c0-6.4 4.266667-10.666667 10.666666-10.666667z m490.666667 224v53.333333c0 6.4-4.266667 10.666667-10.666667 10.666667h-170.666666c-6.4 0-10.666667-4.266667-10.666667-10.666667v-53.333333h192z m298.666667 352h-789.333334c-6.4 0-10.666667-4.266667-10.666666-10.666667v-341.333333h245.333333v53.333333c0 40.533333 34.133333 74.666667 74.666667 74.666667h170.666666c40.533333 0 74.666667-34.133333 74.666667-74.666667v-53.333333H917.333333v341.333333c0 6.4-4.266667 10.666667-10.666666 10.666667z"
          p-id="1880" fill="#3C8D43"></path>
</svg>