<?xml version="1.0" encoding="utf-8"?>
<!-- Generator: Adobe Illustrator 24.0.2, SVG Export Plug-In . SVG Version: 6.00 Build 0)  -->
<svg version="1.1" id="Layer_1" xmlns="http://www.w3.org/2000/svg" xmlns:xlink="http://www.w3.org/1999/xlink" x="0px" y="0px"
	 viewBox="0 0 40 40" style="enable-background:new 0 0 40 40;" xml:space="preserve">
<style type="text/css">
	.st0{fill:#0199C7;}
	.st1{fill:#FFFFFF;}
	.st2{fill:none;}
</style>
<rect x="2" y="2" class="st0" width="36" height="36"/>
<g>
	<path d="M4.3,12.9v-5h1.5C6.2,7.9,6.6,8,7,8.2C7.3,8.4,7.6,8.7,7.8,9C8,9.4,8.1,9.8,8.1,10.3v0.2c0,0.5-0.1,0.9-0.3,1.2
		c-0.2,0.4-0.5,0.6-0.8,0.8s-0.7,0.3-1.2,0.3H4.3z M5.3,8.7v3.3h0.5c0.4,0,0.7-0.1,0.9-0.4S7,11,7,10.5v-0.3c0-0.5-0.1-0.9-0.3-1.2
		C6.5,8.9,6.2,8.7,5.8,8.7H5.3z"/>
	<path class="st1" d="M11.1,12.9c0-0.1-0.1-0.2-0.1-0.4C10.7,12.8,10.4,13,10,13c-0.4,0-0.7-0.1-0.9-0.3c-0.2-0.2-0.4-0.5-0.4-0.8
		c0-0.4,0.1-0.7,0.4-0.9c0.3-0.2,0.7-0.3,1.2-0.3H11v-0.3c0-0.2-0.1-0.4-0.2-0.5c-0.1-0.1-0.3-0.2-0.6-0.2c-0.2,0-0.4,0.1-0.6,0.2
		s-0.2,0.3-0.2,0.4H8.8C8.8,10,8.9,9.8,9,9.7c0.1-0.2,0.3-0.3,0.5-0.4c0.2-0.1,0.5-0.2,0.7-0.2c0.4,0,0.8,0.1,1,0.3
		c0.2,0.2,0.4,0.5,0.4,0.9V12c0,0.3,0,0.6,0.1,0.8v0.1H11.1z M10.1,12.4c0.2,0,0.4-0.1,0.6-0.2S11,12,11,11.8v-0.8h-0.5
		c-0.8,0-1.2,0.2-1.2,0.7c0,0.2,0.1,0.4,0.2,0.5S9.9,12.4,10.1,12.4z"/>
	<path class="st1" d="M14.4,9.8c-0.1,0-0.2,0-0.3,0c-0.4,0-0.7,0.2-0.8,0.5v2.6h-0.6V9.2h0.6l0,0.4c0.2-0.3,0.5-0.5,0.9-0.5
		c0.1,0,0.2,0,0.3,0V9.8z"/>
	<path class="st1" d="M16.1,8.3v0.9h0.7v0.5h-0.7V12c0,0.1,0,0.3,0.1,0.3s0.2,0.1,0.3,0.1c0.1,0,0.2,0,0.3,0v0.5
		c-0.2,0-0.3,0.1-0.5,0.1c-0.3,0-0.5-0.1-0.6-0.3s-0.2-0.4-0.2-0.7V9.7h-0.7V9.2h0.7V8.3H16.1z"/>
	<path d="M6.2,16.3h1v3.4c0,0.3-0.1,0.6-0.2,0.8c-0.1,0.2-0.3,0.4-0.6,0.6s-0.5,0.2-0.9,0.2c-0.5,0-0.9-0.1-1.2-0.4
		c-0.3-0.3-0.4-0.6-0.4-1.1h1c0,0.2,0.1,0.4,0.2,0.5s0.3,0.2,0.5,0.2c0.2,0,0.4-0.1,0.5-0.2s0.2-0.3,0.2-0.6V16.3z"/>
	<path class="st1" d="M10.3,20.3c0-0.2-0.1-0.3-0.2-0.4c-0.1-0.1-0.4-0.2-0.7-0.2c-0.3-0.1-0.6-0.2-0.8-0.2
		c-0.2-0.1-0.3-0.2-0.4-0.3c-0.1-0.1-0.1-0.3-0.1-0.5c0-0.3,0.1-0.6,0.4-0.8c0.3-0.2,0.6-0.3,1-0.3c0.4,0,0.8,0.1,1,0.3
		c0.3,0.2,0.4,0.5,0.4,0.8h-0.6c0-0.2-0.1-0.3-0.2-0.4C9.9,18.1,9.7,18,9.5,18c-0.2,0-0.4,0.1-0.5,0.2s-0.2,0.2-0.2,0.4
		c0,0.2,0.1,0.3,0.2,0.3s0.3,0.2,0.7,0.2c0.3,0.1,0.6,0.2,0.8,0.3s0.3,0.2,0.4,0.4c0.1,0.1,0.1,0.3,0.1,0.5c0,0.3-0.1,0.6-0.4,0.8
		c-0.3,0.2-0.6,0.3-1,0.3c-0.3,0-0.6-0.1-0.8-0.2s-0.4-0.3-0.5-0.4C8,20.6,8,20.4,8,20.1h0.6c0,0.2,0.1,0.4,0.3,0.5
		c0.2,0.1,0.4,0.2,0.6,0.2c0.2,0,0.4,0,0.6-0.1C10.2,20.6,10.3,20.5,10.3,20.3z"/>
	<path class="st1" d="M11.6,19.4c0-0.4,0.1-0.7,0.2-1c0.1-0.3,0.3-0.5,0.6-0.7c0.3-0.2,0.5-0.2,0.9-0.2c0.5,0,0.9,0.2,1.2,0.5
		c0.3,0.3,0.5,0.8,0.5,1.4v0c0,0.4-0.1,0.7-0.2,1c-0.1,0.3-0.3,0.5-0.6,0.7c-0.3,0.2-0.6,0.2-0.9,0.2c-0.5,0-0.9-0.2-1.2-0.5
		C11.7,20.5,11.6,20,11.6,19.4L11.6,19.4z M12.2,19.5c0,0.4,0.1,0.7,0.3,1c0.2,0.2,0.4,0.4,0.8,0.4c0.3,0,0.6-0.1,0.8-0.4
		c0.2-0.3,0.3-0.6,0.3-1.1c0-0.4-0.1-0.7-0.3-1c-0.2-0.3-0.4-0.4-0.8-0.4c-0.3,0-0.6,0.1-0.8,0.4S12.2,19,12.2,19.5z"/>
	<path class="st1" d="M16.3,17.6l0,0.5c0.3-0.4,0.7-0.5,1.1-0.5c0.8,0,1.2,0.4,1.2,1.3v2.4H18v-2.4c0-0.3-0.1-0.5-0.2-0.6
		c-0.1-0.1-0.3-0.2-0.6-0.2c-0.2,0-0.4,0.1-0.5,0.2s-0.3,0.3-0.4,0.4v2.6h-0.6v-3.7H16.3z"/>
	<path d="M8.3,29.1c-0.2,0.2-0.4,0.4-0.8,0.5s-0.7,0.2-1.1,0.2c-0.4,0-0.8-0.1-1.1-0.3c-0.3-0.2-0.6-0.5-0.8-0.8
		c-0.2-0.4-0.3-0.8-0.3-1.3v-0.3c0-0.5,0.1-0.9,0.3-1.3c0.2-0.4,0.4-0.6,0.7-0.8c0.3-0.2,0.7-0.3,1.1-0.3c0.6,0,1.1,0.1,1.4,0.4
		s0.5,0.7,0.6,1.2h-1c0-0.3-0.1-0.5-0.3-0.6c-0.2-0.1-0.4-0.2-0.6-0.2c-0.3,0-0.6,0.1-0.8,0.4c-0.2,0.3-0.3,0.7-0.3,1.2v0.3
		c0,0.5,0.1,0.9,0.3,1.2s0.5,0.4,0.9,0.4c0.4,0,0.7-0.1,0.8-0.2v-0.9H6.3v-0.8h2V29.1z"/>
	<path class="st1" d="M10.7,29.8c-0.5,0-0.9-0.2-1.2-0.5S9,28.5,9,27.9v-0.1c0-0.4,0.1-0.7,0.2-1c0.1-0.3,0.3-0.5,0.6-0.7
		c0.3-0.2,0.5-0.2,0.8-0.2c0.5,0,0.9,0.2,1.1,0.5c0.3,0.3,0.4,0.8,0.4,1.4V28H9.6c0,0.4,0.1,0.7,0.3,0.9c0.2,0.2,0.5,0.3,0.8,0.3
		c0.2,0,0.4,0,0.6-0.1c0.2-0.1,0.3-0.2,0.4-0.4l0.4,0.3C11.8,29.5,11.3,29.8,10.7,29.8z M10.6,26.4c-0.3,0-0.5,0.1-0.6,0.3
		s-0.3,0.4-0.3,0.8h1.9v0c0-0.3-0.1-0.6-0.3-0.7S10.9,26.4,10.6,26.4z"/>
	<path class="st1" d="M13.4,26l0,0.5c0.3-0.4,0.7-0.5,1.1-0.5c0.8,0,1.2,0.4,1.2,1.3v2.4h-0.6v-2.4c0-0.3-0.1-0.5-0.2-0.6
		c-0.1-0.1-0.3-0.2-0.6-0.2c-0.2,0-0.4,0.1-0.5,0.2s-0.3,0.3-0.4,0.4v2.6h-0.6V26H13.4z"/>
	<path class="st1" d="M18.2,29.8c-0.5,0-0.9-0.2-1.2-0.5s-0.5-0.8-0.5-1.3v-0.1c0-0.4,0.1-0.7,0.2-1c0.1-0.3,0.3-0.5,0.6-0.7
		c0.3-0.2,0.5-0.2,0.8-0.2c0.5,0,0.9,0.2,1.1,0.5c0.3,0.3,0.4,0.8,0.4,1.4V28h-2.5c0,0.4,0.1,0.7,0.3,0.9c0.2,0.2,0.5,0.3,0.8,0.3
		c0.2,0,0.4,0,0.6-0.1c0.2-0.1,0.3-0.2,0.4-0.4l0.4,0.3C19.3,29.5,18.9,29.8,18.2,29.8z M18.2,26.4c-0.3,0-0.5,0.1-0.6,0.3
		s-0.3,0.4-0.3,0.8H19v0c0-0.3-0.1-0.6-0.3-0.7S18.4,26.4,18.2,26.4z"/>
	<path class="st1" d="M22.2,26.6c-0.1,0-0.2,0-0.3,0c-0.4,0-0.7,0.2-0.8,0.5v2.6h-0.6V26H21l0,0.4c0.2-0.3,0.5-0.5,0.9-0.5
		c0.1,0,0.2,0,0.3,0V26.6z"/>
	<path class="st1" d="M24.9,29.7c0-0.1-0.1-0.2-0.1-0.4c-0.3,0.3-0.6,0.5-1.1,0.5c-0.4,0-0.7-0.1-0.9-0.3s-0.3-0.5-0.3-0.8
		c0-0.4,0.1-0.7,0.4-0.9s0.7-0.3,1.2-0.3h0.6v-0.3c0-0.2-0.1-0.4-0.2-0.5c-0.1-0.1-0.3-0.2-0.6-0.2c-0.2,0-0.4,0.1-0.6,0.2
		c-0.2,0.1-0.2,0.3-0.2,0.4h-0.6c0-0.2,0.1-0.4,0.2-0.5s0.3-0.3,0.5-0.4s0.5-0.2,0.7-0.2c0.4,0,0.8,0.1,1,0.3s0.4,0.5,0.4,0.9v1.7
		c0,0.3,0,0.6,0.1,0.8v0.1H24.9z M23.9,29.2c0.2,0,0.4-0.1,0.6-0.2s0.3-0.2,0.4-0.4v-0.8h-0.5c-0.8,0-1.2,0.2-1.2,0.7
		c0,0.2,0.1,0.4,0.2,0.5S23.7,29.2,23.9,29.2z"/>
	<path class="st1" d="M27.3,25.1V26H28v0.5h-0.7v2.3c0,0.1,0,0.3,0.1,0.3s0.2,0.1,0.3,0.1c0.1,0,0.2,0,0.3,0v0.5
		c-0.2,0-0.3,0.1-0.5,0.1c-0.3,0-0.5-0.1-0.6-0.3c-0.1-0.2-0.2-0.4-0.2-0.7v-2.3H26V26h0.7v-0.9H27.3z"/>
	<path class="st1" d="M28.5,27.8c0-0.4,0.1-0.7,0.2-1c0.1-0.3,0.3-0.5,0.6-0.7c0.3-0.2,0.5-0.2,0.9-0.2c0.5,0,0.9,0.2,1.2,0.5
		c0.3,0.3,0.5,0.8,0.5,1.4v0c0,0.4-0.1,0.7-0.2,1s-0.3,0.5-0.6,0.7c-0.3,0.2-0.6,0.2-0.9,0.2c-0.5,0-0.9-0.2-1.2-0.5
		C28.7,28.9,28.5,28.4,28.5,27.8L28.5,27.8z M29.1,27.9c0,0.4,0.1,0.7,0.3,1s0.4,0.4,0.8,0.4c0.3,0,0.6-0.1,0.8-0.4s0.3-0.6,0.3-1.1
		c0-0.4-0.1-0.7-0.3-1s-0.4-0.4-0.8-0.4c-0.3,0-0.6,0.1-0.8,0.4C29.2,27.1,29.1,27.4,29.1,27.9z"/>
	<path class="st1" d="M34.4,26.6c-0.1,0-0.2,0-0.3,0c-0.4,0-0.7,0.2-0.8,0.5v2.6h-0.6V26h0.6l0,0.4c0.2-0.3,0.5-0.5,0.9-0.5
		c0.1,0,0.2,0,0.3,0V26.6z"/>
</g>
<rect x="8.5" y="23.1" class="st2" width="26.7" height="4.2"/>
<g>
	<path d="M22.9,12.4c0-1,0.1-2,0.4-3c0.3-0.9,0.7-1.8,1.2-2.6s1.1-1.3,1.7-1.6L26.5,6c-0.7,0.5-1.2,1.3-1.6,2.3
		c-0.4,1-0.7,2.2-0.7,3.5l0,0.6c0,1.8,0.3,3.3,1,4.6c0.4,0.8,0.8,1.4,1.4,1.8l-0.3,0.8c-0.6-0.3-1.2-0.9-1.7-1.7
		C23.4,16.4,22.9,14.5,22.9,12.4z"/>
	<path d="M28.4,11.6l-1.5-0.4l0.2-0.7l1.5,0.5l0-1.7h0.7l0,1.7l1.5-0.5l0.2,0.7l-1.5,0.4l1,1.3l-0.6,0.5L28.9,12L28,13.4L27.4,13
		L28.4,11.6z"/>
	<path d="M34.9,12.5c0,1-0.1,2-0.4,2.9c-0.3,0.9-0.7,1.8-1.2,2.6c-0.5,0.8-1.1,1.3-1.7,1.7l-0.3-0.8c0.7-0.5,1.3-1.4,1.7-2.5
		c0.4-1.1,0.6-2.4,0.7-3.8v-0.2c0-1-0.1-1.8-0.3-2.7s-0.5-1.6-0.8-2.2c-0.4-0.7-0.8-1.2-1.2-1.5l0.3-0.8c0.6,0.3,1.2,0.9,1.7,1.7
		c0.5,0.8,1,1.6,1.2,2.6C34.8,10.4,34.9,11.4,34.9,12.5z"/>
</g>
<rect x="28.6" y="5.9" class="st2" width="4.3" height="0.6"/>
</svg>
